<svg viewBox="0 0 12 12" xmlns="http://www.w3.org/2000/svg">
    <g transform="matrix(1,0,0,1,4.333,2.485)">
        <path d="M0,4.515L1.811,4.515C1.874,4.515 1.937,4.517 2.001,4.521C2.561,3.335 3.769,2.515 5.167,2.515C6.146,2.515 7.029,2.919 7.664,3.567C7.664,3.549 7.667,3.533 7.667,3.515C7.667,0.201 4.98,-2.485 1.667,-2.485C-1.646,-2.485 -4.333,0.201 -4.333,3.515C-4.333,4.817 -3.914,6.018 -3.211,7C-2.834,5.573 -1.546,4.515 0,4.515" style="fill:rgb(253,222,131);fill-rule:nonzero;"/>
    </g>
    <g transform="matrix(1,0,0,1,11.999,8.5)">
        <path d="M0,0C0,-1.381 -1.119,-2.5 -2.5,-2.5C-3.498,-2.5 -4.361,-1.916 -4.762,-1.066L-5.052,-0.451L-5.73,-0.496C-5.772,-0.498 -5.814,-0.5 -5.855,-0.5L-7.665,-0.5C-8.954,-0.5 -9.999,0.545 -9.999,1.834C-9.999,2.201 -9.7,2.5 -9.333,2.5L-5.143,2.5C-5.127,2.5 -5.111,2.5 -5.096,2.498L-5.048,2.496L-5,2.5L-2,2.5C-0.895,2.5 0,1.604 0,0.5L0,0Z" style="fill:white;fill-rule:nonzero;"/>
    </g>
</svg>