<?xml version="1.0" encoding="utf-8"?>
<svg viewBox="0 0 1795.285 624" xmlns="http://www.w3.org/2000/svg">
  <g>
    <path d="M1614.94,443.689c-11.826,0 -23.959,-2.63 -36.426,-7.9c-12.466,-5.269 -20.626,-10.813 -24.491,-16.627l0,-201.359c7.301,-7.529 17.177,-14.309 29.644,-20.336c12.466,-6.023 23,-9.036 31.593,-9.036c39.745,0 68.648,10.114 86.7,30.337c18.048,20.22 27.074,52.173 27.074,95.841c0,86.056 -38.037,129.08 -114.094,129.08m137.795,-261.039c-27.312,-30.542 -65.486,-45.817 -114.52,-45.817c-32.901,0 -60.967,11.637 -84.192,34.895l0,-28.377l-61.417,0l0,480.649l61.417,0l0,-154.194c4.731,6.672 15.428,12.578 32.101,17.739c16.661,5.157 32.314,7.738 46.939,7.738c52.04,0 91.819,-16.616 119.351,-49.846c27.532,-33.23 41.299,-76.083 41.299,-128.572c0,-58.927 -13.662,-103.665 -40.978,-134.215m-399.191,227.817c-16.253,23.237 -38.691,34.854 -67.31,34.854c-61.351,0 -92.015,-43.357 -92.015,-130.066c0,-40.023 8.339,-71.431 25.016,-94.239c16.682,-22.808 39.016,-34.217 66.999,-34.217c61.129,0 91.694,42.82 91.694,128.456c0,40.239 -8.131,71.979 -24.384,95.212m-67.31,-273.634c-46.956,0 -84.805,16.407 -113.562,49.205c-28.753,32.805 -43.132,75.871 -43.132,129.217c0,55.064 13.779,98.837 41.349,131.31c27.566,32.485 66.019,48.718 115.345,48.718c48.246,0 86.366,-16.07 114.365,-48.231c28.003,-32.156 42.007,-76.088 42.007,-131.797c0,-55.923 -13.683,-99.633 -41.04,-131.153c-27.354,-31.507 -65.795,-47.269 -115.332,-47.269m-171.405,6.518l-71.747,0l-132.072,160.35l0,-302.099l-61.417,0l0,487.163l61.417,0l0,-117.717l53.536,-55.148l108.43,172.865l66.311,0l-135.075,-214.149l110.617,-131.265Zm-452.431,266.887l-101.908,-266.887l-62.504,0l93.948,240.137c10.58,27.071 19.214,49.796 25.904,68.167c6.697,18.384 10.046,37.018 10.046,55.927c0,17.189 -9.172,31.744 -27.495,43.677c-18.331,11.92 -40.324,17.889 -65.986,17.889l0,54.852c31.411,0 59.872,-7.309 85.363,-21.918c25.496,-14.613 42.228,-32.885 50.192,-54.802l146.529,-403.929l-62.503,0l-91.586,266.887Zm-320.251,-40.955l-94.843,-227.014l-16.303,0l-91.586,227.014l-73.646,-227.014l-65.765,0l123.379,353.014l16.303,0l100.825,-235.16l101.365,235.16l16.303,0l123.921,-353.014l-60.325,0l-79.628,227.014Z"/>
  </g>
</svg>